<svg width="578" height="472" viewBox="0 0 578 472" fill="none" xmlns="http://www.w3.org/2000/svg">
<path d="M70.894 345.138C71.3474 344.753 71.8007 344.608 72.3777 344.656C77.9004 344.656 83.3819 344.656 88.9046 344.656C89.1519 344.656 89.358 344.656 89.6053 344.656C89.7701 344.656 90.0174 344.801 90.0999 344.512C90.1411 344.319 89.9762 344.175 89.8526 344.078C88.5749 342.585 87.9979 340.755 88.0804 338.636C88.2452 334.59 88.3689 330.545 88.4925 326.499C88.781 318.311 89.0283 310.123 89.3168 301.936C89.6053 293.459 89.935 285.03 90.2647 276.554C90.5532 268.318 90.8417 260.082 91.1302 251.846C91.3775 244.38 91.666 236.915 91.9133 229.45C92.1606 222.081 92.4491 214.664 92.6964 207.295C92.9436 199.829 93.2321 192.364 93.4794 184.899C93.7267 177.482 94.0152 170.065 94.2625 162.647C94.5098 155.23 94.7983 147.813 95.0456 140.396C95.1692 137.458 95.2516 134.568 95.3753 131.63C95.5401 127.296 98.9197 123.491 102.67 123.491C108.069 123.442 113.468 123.491 118.909 123.491C120.351 123.491 120.145 123.731 120.145 121.998C120.145 116.218 120.145 110.438 120.186 104.659C120.186 104.466 120.186 104.274 120.186 104.081C120.227 102.347 121.134 101.287 122.618 101.287C124.266 101.287 125.915 101.287 127.564 101.287C128.718 101.287 128.676 101.384 128.676 100.035C128.676 96.7119 128.676 93.3886 128.676 90.1135C128.676 88.7649 128.759 88.6686 129.913 88.6686C130.655 88.6686 131.438 88.6686 132.18 88.6686C133.128 88.6686 133.128 88.6686 133.128 87.609C133.128 86.0196 133.128 84.4302 133.128 82.889C133.128 82.0221 133.128 81.2033 133.292 80.3364C133.993 76.676 136.631 74.1233 139.845 73.9788C140.917 73.9306 142.03 73.9788 143.101 73.9788C146.151 73.9788 149.16 73.9788 152.21 73.9788C153.24 73.9788 153.323 74.0751 153.364 75.2792C153.364 76.8686 153.364 78.458 153.364 79.9992C153.364 81.2033 153.24 81.3478 152.21 81.3478C149.654 81.3478 147.058 81.3478 144.503 81.3478C144.255 81.3478 143.967 81.3478 143.72 81.3478C142.772 81.4441 142.112 82.1666 142.071 83.2743C142.03 84.8637 142.071 86.4531 142.071 87.9943C142.071 88.5241 142.318 88.6204 142.689 88.6204C143.761 88.6204 144.791 88.6204 145.863 88.6204C146.976 88.6204 147.058 88.7649 147.058 90.0172C147.058 93.2441 147.058 96.4711 147.058 99.7462C147.058 100.035 147.058 100.276 147.058 100.565C147.017 101.095 147.223 101.336 147.676 101.287C148.913 101.287 150.19 101.287 151.427 101.287C153.281 101.287 154.147 102.299 154.147 104.466C154.147 110.101 154.147 115.736 154.147 121.323C154.147 121.66 154.147 121.998 154.147 122.383C154.147 123.587 154.064 123.491 155.095 123.491C160.535 123.491 165.975 123.491 171.416 123.491C175.207 123.491 178.381 126.573 178.958 130.908C179.123 132.208 179.081 133.605 179.123 134.954C179.37 142.034 179.617 149.113 179.865 156.193C180.112 162.84 180.359 169.487 180.606 176.133C180.895 184.321 181.183 192.509 181.431 200.696C181.76 209.992 182.09 219.287 182.42 228.631C182.667 236.048 182.956 243.465 183.203 250.883C183.491 258.637 183.78 266.439 184.068 274.194C184.316 281.274 184.563 288.354 184.81 295.434C185.099 303.91 185.428 312.435 185.758 320.912C185.964 326.547 186.17 332.134 186.376 337.769C186.459 339.551 186.335 341.237 185.511 342.778C185.222 343.308 184.893 343.789 184.522 344.223C184.439 344.319 184.398 344.416 184.398 344.512C184.439 344.705 184.563 344.705 184.687 344.705C184.851 344.705 185.016 344.705 185.181 344.705C189.014 344.705 192.847 344.705 196.639 344.705C196.845 344.705 197.051 344.705 197.216 344.705C197.422 344.705 197.381 344.512 197.298 344.416C197.216 344.319 197.092 344.223 197.01 344.127C195.196 342.248 194.372 339.888 194.372 337.047C194.372 336.709 194.372 336.372 194.372 335.987C194.372 308.534 194.413 281.129 194.331 253.676C194.331 248.185 195.608 243.273 198.122 238.745C198.741 237.638 199.606 236.626 200.06 235.422C200.513 234.266 200.554 232.869 200.884 231.617C203.315 221.696 208.426 214.278 216.174 209.414C216.793 209.029 217.122 208.595 217.287 207.825C217.493 206.861 217.699 205.898 217.823 204.887C217.905 204.26 217.74 203.923 217.246 203.634C215.103 202.478 213.124 201.034 211.311 199.3C204.923 193.231 201.049 185.38 200.06 175.796C198.122 157.157 208.632 140.637 223.717 136.687C225.86 136.158 228.003 135.869 230.187 135.869C243.499 135.869 256.812 135.869 270.165 135.869C271.525 135.869 271.401 136.013 271.401 134.424C271.401 107.982 271.401 81.5404 271.401 55.147C271.401 54.5208 271.237 53.7984 271.814 53.3649C283.601 53.3649 295.429 53.3649 307.217 53.3649C307.505 53.7021 307.67 54.0874 307.629 54.6172C307.588 54.9062 307.629 55.2433 307.629 55.5323C307.629 81.8294 307.629 108.078 307.629 134.376C307.629 136.061 307.505 135.869 308.865 135.869C333.429 135.869 357.993 135.869 382.556 135.869C386.678 135.869 390.222 137.458 393.272 140.685C400.814 148.728 399.619 163.129 390.923 169.39C389.893 170.161 388.78 170.739 387.626 171.22C387.543 171.269 387.461 171.317 387.378 171.365C387.461 171.413 387.502 171.509 387.585 171.558C387.873 171.702 388.12 171.798 388.409 171.943C394.344 174.64 398.218 181.238 398.259 188.704C398.3 196.121 394.55 202.719 388.697 205.561C388.368 205.705 388.038 205.898 387.708 206.042C387.955 206.476 388.368 206.476 388.739 206.669C394.591 209.51 398.383 216.253 398.3 223.67C398.218 231.136 394.22 237.782 388.244 240.383C387.997 240.479 387.543 240.479 387.543 240.816C387.543 241.154 387.997 241.154 388.285 241.25C393.355 243.658 396.61 247.896 397.888 254.109C399.702 262.923 395.539 271.978 388.244 275.205C387.955 275.349 387.708 275.446 387.42 275.59C387.626 275.927 387.997 275.976 388.285 276.072C394.385 278.817 398.3 285.464 398.3 293.074C398.3 300.635 394.344 307.33 388.244 310.027C387.997 310.123 387.502 310.123 387.502 310.509C387.502 310.749 387.955 310.798 388.244 310.942C398.383 315.421 401.597 330.352 394.467 339.84C393.148 341.622 391.541 343.067 389.728 344.127C389.604 344.223 389.357 344.223 389.398 344.464C389.439 344.705 389.686 344.608 389.81 344.608C394.22 344.608 398.63 344.608 403.081 344.608C405.183 344.608 407.285 344.608 409.428 344.608C409.593 344.608 409.881 344.753 409.964 344.464C410.046 344.175 409.758 344.127 409.634 343.982C407.615 342.248 406.255 339.985 405.719 337.143C405.513 336.131 405.472 335.072 405.472 334.06C405.472 296.445 405.472 258.829 405.472 221.262C405.472 214.76 407.45 209.269 411.365 204.646C413.879 201.708 416.723 199.3 419.649 196.988C422.823 194.435 426.079 192.027 429.005 189.041C431.684 186.296 433.992 183.213 435.434 179.36C436.382 176.807 436.877 174.158 437 171.413C437.042 170.594 437.042 170.594 436.341 170.594C435.517 170.594 434.692 170.594 433.868 170.594C433.168 170.594 433.168 170.546 433.168 169.727C433.168 165.007 433.168 160.336 433.168 155.616C433.168 154.7 433.168 154.7 433.992 154.652C434.198 154.652 434.404 154.652 434.569 154.652C445.12 154.652 455.671 154.652 466.221 154.652C467.705 154.652 467.499 154.508 467.499 156.242C467.499 160.528 467.499 164.815 467.499 169.053C467.499 169.294 467.499 169.535 467.499 169.727C467.458 170.498 467.458 170.546 466.757 170.546C466.015 170.546 465.232 170.546 464.49 170.546C463.584 170.546 463.584 170.594 463.625 171.558C463.955 176.567 465.397 181.094 468.2 184.947C470.137 187.596 472.362 189.908 474.794 191.882C477.514 194.146 480.275 196.314 482.996 198.529C485.51 200.6 487.941 202.767 490.002 205.465C493.423 209.847 495.113 214.953 495.113 220.925C495.113 258.685 495.113 296.445 495.113 334.205C495.113 338.299 493.794 341.622 490.95 344.03C490.826 344.127 490.744 344.223 490.62 344.319C490.497 344.464 490.538 344.608 490.703 344.608C490.95 344.608 491.238 344.608 491.486 344.608C496.267 344.608 501.047 344.608 505.828 344.608C506.282 344.608 506.735 344.56 507.065 345.09C507.065 345.234 507.065 345.379 507.065 345.571C506.817 345.86 506.611 346.101 506.24 346.053C505.993 346.005 505.705 346.053 505.457 346.053C361.166 346.053 216.916 346.053 72.625 346.053C72.0068 346.053 71.3886 346.101 70.8528 345.571C70.894 345.427 70.894 345.283 70.894 345.138Z" fill="#151D38"/>
<path d="M181.678 239.709C181.637 238.312 181.554 236.963 181.513 235.567C181.266 228.149 180.977 220.732 180.73 213.315C180.483 205.898 180.194 198.481 179.947 191.064C179.7 183.647 179.411 176.229 179.164 168.812C178.917 161.732 178.669 154.652 178.422 147.572C178.34 145.116 178.257 142.66 178.134 140.203C178.092 139.288 178.092 139.288 177.268 139.24C177.186 139.24 177.062 139.24 176.98 139.24C150.479 139.24 123.978 139.24 97.4772 139.24C97.2299 139.24 97.0238 139.24 96.7765 139.24C96.5293 139.24 96.4056 139.385 96.4056 139.674C96.4056 140.011 96.3644 140.348 96.3232 140.733C96.1995 143.767 96.1171 146.802 95.9935 149.836C95.6638 158.313 95.3753 166.838 95.0455 175.314C94.7983 182.346 94.551 189.378 94.3037 196.41C94.0152 204.212 93.7267 212.015 93.4382 219.817C93.1909 227.234 92.9024 234.651 92.6551 242.069C92.3666 250.305 92.1193 258.54 91.7896 266.776C91.5011 275.253 91.1714 283.778 90.8417 292.255C90.512 301.213 90.2235 310.171 89.8938 319.13C89.7701 322.838 89.6465 326.499 89.4816 330.207C89.3992 333.145 89.2343 336.035 89.1931 338.973C89.1519 341.67 90.718 343.838 92.9436 344.464C93.4794 344.608 94.0564 344.608 94.6334 344.608C120.64 344.608 146.646 344.608 172.652 344.608C175.166 344.608 177.68 344.608 180.153 344.608C182.09 344.608 183.533 343.549 184.522 341.574C185.058 340.514 185.14 339.31 185.099 338.106C184.893 332.856 184.728 327.558 184.522 322.309C184.274 315.71 184.027 309.064 183.78 302.465C183.491 295.048 183.244 287.631 182.997 280.214C182.708 272.026 182.461 263.838 182.173 255.651C182.09 250.305 181.884 245.007 181.678 239.709Z" fill="#EDCFE4"/>
<path d="M406.708 277.228C406.708 296.011 406.708 314.843 406.708 333.627C406.708 334.687 406.708 335.698 406.914 336.709C407.862 341.478 411.2 344.608 415.404 344.608C431.437 344.608 447.469 344.608 463.46 344.608C470.755 344.608 478.05 344.608 485.304 344.608C487.447 344.608 489.301 343.789 490.909 342.152C492.928 340.081 493.835 337.432 493.835 334.253C493.835 316.818 493.835 299.335 493.835 281.9C493.835 261.575 493.835 241.298 493.835 220.973C493.835 215.386 492.228 210.57 489.054 206.476C488.106 205.224 487.076 204.116 485.963 203.056C483.243 200.359 480.234 198.144 477.267 195.784C474.176 193.327 471.085 190.775 468.488 187.596C464.738 183.069 462.595 177.722 462.347 171.413C462.306 170.594 462.306 170.546 461.441 170.546C453.981 170.546 446.521 170.546 439.102 170.546C438.237 170.546 438.237 170.546 438.196 171.558C437.948 176.326 436.671 180.66 434.28 184.562C432.962 186.681 431.395 188.559 429.706 190.293C426.985 192.99 424.018 195.302 421.092 197.614C417.918 200.167 414.704 202.671 412.025 205.946C409.593 208.932 407.821 212.352 407.12 216.446C406.79 218.228 406.749 220.058 406.749 221.84C406.708 240.335 406.708 258.781 406.708 277.228Z" fill="#C7E4D8"/>
<path d="M306.475 214.278C306.475 184.369 306.475 154.508 306.475 124.598C306.475 124.309 306.475 123.972 306.475 123.683C306.475 122.816 306.475 122.816 305.733 122.768C305.486 122.768 305.28 122.768 305.032 122.768C294.77 122.768 284.508 122.768 274.286 122.768C272.72 122.768 272.72 122.768 272.72 124.55C272.72 184.321 272.72 244.043 272.72 303.814C272.72 304.103 272.72 304.44 272.72 304.729C272.72 305.644 272.72 305.644 273.462 305.644C273.668 305.644 273.874 305.644 274.039 305.644C284.384 305.644 294.729 305.644 305.115 305.644C306.722 305.644 306.516 305.837 306.516 304.055C306.475 274.145 306.475 244.188 306.475 214.278Z" fill="#ACDCF6"/>
<path d="M195.691 294.133C195.691 305.307 195.691 316.481 195.691 327.655C195.691 330.834 195.65 334.06 195.691 337.239C195.773 341.574 198.452 344.608 202.12 344.608C219.513 344.608 236.864 344.608 254.256 344.608C258.089 344.608 260.768 341.478 260.768 336.95C260.768 333.194 260.768 329.485 260.768 325.728C260.768 324.139 260.933 324.283 259.573 324.283C246.797 324.283 233.979 324.283 221.203 324.283C219.925 324.283 220.049 324.476 220.049 322.935C220.049 300.491 220.049 278.095 220.049 255.651C220.049 254.061 219.925 254.254 221.285 254.254C234.02 254.254 246.714 254.254 259.449 254.254C259.697 254.254 259.985 254.254 260.233 254.254C260.603 254.254 260.768 254.109 260.768 253.676C260.809 251.605 260.727 249.534 260.315 247.463C259.573 243.995 258.172 240.961 256.441 238.071C254.38 234.603 251.907 231.473 249.517 228.294C246.961 224.971 244.406 221.647 242.181 217.987C239.502 213.556 237.565 208.788 237.194 203.249C237.152 202.382 237.111 202.382 236.369 202.382C233.773 202.382 231.176 202.382 228.539 202.382C225.777 202.382 223.016 202.382 220.213 202.382C219.348 202.382 219.348 202.382 219.265 203.393C219.142 205.272 218.812 207.102 218.318 208.932C217.328 212.545 215.721 215.723 213.825 218.758C211.764 222.081 209.415 225.115 207.107 228.149C204.511 231.521 201.914 234.892 199.689 238.649C197.01 243.273 195.567 248.234 195.608 253.917C195.773 267.354 195.691 280.744 195.691 294.133Z" fill="#F8E8A0"/>
<path d="M221.285 289.317C221.285 300.057 221.285 310.798 221.285 321.538C221.285 323.031 221.161 322.887 222.48 322.887C234.844 322.887 247.209 322.887 259.573 322.887C260.933 322.887 260.809 323.031 260.809 321.49C260.809 300.057 260.809 278.576 260.809 257.144C260.809 255.602 260.933 255.747 259.573 255.747C247.25 255.747 234.927 255.747 222.604 255.747C222.439 255.747 222.274 255.747 222.109 255.747C221.326 255.747 221.326 255.795 221.326 256.614C221.326 256.903 221.326 257.144 221.326 257.433C221.285 268.029 221.285 278.673 221.285 289.317Z" fill="#F5CB75"/>
<path d="M249.723 137.314C243.252 137.314 236.781 137.314 230.352 137.314C229.116 137.314 227.838 137.41 226.602 137.603C219.265 138.807 213.083 142.611 208.22 149.162C202.368 157.157 200.142 166.5 201.502 176.904C202.491 184.562 205.582 191.016 210.363 196.314C211.641 197.71 213.001 198.962 214.485 200.07C215.103 200.552 215.144 200.504 215.185 199.589C215.185 198.625 215.185 197.662 215.185 196.699C215.185 194.869 215.185 192.99 215.185 191.16C215.185 190.052 215.185 190.052 216.174 190.052C216.545 190.052 216.916 190.052 217.246 190.052C218.194 190.052 218.194 190.052 218.235 188.896C218.235 188.656 218.235 188.415 218.235 188.222C218.235 182.635 218.235 177.048 218.235 171.461C218.235 170.931 218.235 170.402 218.235 169.824C218.235 169.005 218.276 169.005 218.977 169.005C219.389 169.005 219.76 169.005 220.172 169.005C225.86 169.005 231.588 169.005 237.276 169.005C238.142 169.005 238.183 169.005 238.183 169.968C238.183 170.642 238.43 170.787 238.925 170.739C239.089 170.739 239.254 170.739 239.419 170.739C249.682 170.739 259.944 170.739 270.165 170.739C270.33 170.739 270.495 170.739 270.66 170.739C271.36 170.691 271.401 170.691 271.401 169.92C271.401 169.631 271.401 169.39 271.401 169.101C271.401 160.143 271.401 151.136 271.401 142.178C271.401 140.829 271.401 139.481 271.401 138.132C271.401 137.554 271.278 137.265 270.742 137.314C270.495 137.362 270.289 137.314 270.041 137.314C263.323 137.314 256.523 137.314 249.723 137.314Z" fill="white"/>
<path d="M272.679 80.9143C272.679 81.9257 272.679 82.9372 272.679 83.9004C272.679 91.1731 272.679 98.4457 272.679 105.767C272.679 106.874 272.679 106.874 273.668 106.922C275.234 106.922 276.842 106.922 278.408 106.922C281.623 106.922 284.879 106.922 288.093 106.922C288.876 106.922 288.876 106.874 288.876 106.056C288.876 102.154 288.876 98.2531 288.876 94.4C288.876 93.7739 288.712 93.5812 288.176 93.5812C286.939 93.6294 285.662 93.5812 284.425 93.5812C283.312 93.5812 283.148 93.4367 283.148 92.1363C283.148 85.7306 283.148 79.3249 283.148 72.9674C283.148 71.7633 283.312 71.5706 284.343 71.5706C287.764 71.5706 291.184 71.5706 294.646 71.5706C295.718 71.5706 295.883 71.7151 295.883 72.9674C295.883 79.4212 295.883 85.827 295.883 92.2808C295.883 93.4367 295.718 93.6294 294.729 93.6294C293.451 93.6294 292.174 93.6294 290.855 93.6294C290.072 93.6294 290.072 93.6294 290.072 94.4963C290.072 96.3265 290.072 98.2049 290.072 100.035C290.072 102.01 290.072 103.984 290.072 105.911C290.072 106.922 290.072 106.922 290.978 106.922C291.061 106.922 291.184 106.922 291.267 106.922C295.924 106.922 300.581 106.922 305.197 106.922C306.64 106.922 306.434 106.922 306.434 105.478C306.434 89.1021 306.434 72.7265 306.434 56.351C306.434 54.858 306.599 54.9061 305.238 54.9061C294.77 54.9061 284.343 54.9061 273.874 54.9061C273.668 54.9061 273.462 54.9061 273.297 54.9061C272.844 54.858 272.597 55.0506 272.638 55.6286C272.679 55.9176 272.638 56.2547 272.638 56.5437C272.679 64.6833 272.679 72.7747 272.679 80.9143Z" fill="white"/>
<path d="M327.7 137.313C321.477 137.313 315.253 137.313 309.03 137.313C308.783 137.313 308.494 137.313 308.247 137.313C307.876 137.265 307.711 137.506 307.752 137.94C307.752 138.132 307.752 138.325 307.752 138.518C307.752 148.825 307.752 159.18 307.752 169.487C307.752 170.739 307.752 170.739 308.824 170.739C308.906 170.739 308.948 170.739 309.03 170.739C321.436 170.739 333.882 170.739 346.288 170.739C347.689 170.739 347.524 170.835 347.524 169.342C347.524 159.131 347.524 148.921 347.524 138.71C347.524 138.421 347.524 138.18 347.524 137.891C347.565 137.458 347.359 137.265 346.988 137.313C346.741 137.313 346.535 137.313 346.288 137.313C340.064 137.313 333.882 137.313 327.7 137.313Z" fill="white"/>
<path d="M327.577 241.539C325.639 241.539 323.702 241.539 321.724 241.539C317.314 241.539 312.904 241.539 308.494 241.539C307.711 241.539 307.711 241.539 307.711 242.406C307.711 242.55 307.711 242.695 307.711 242.887C307.711 253.146 307.711 263.357 307.711 273.615C307.711 275.012 307.546 274.964 308.906 274.964C321.394 274.964 333.882 274.964 346.37 274.964C347.648 274.964 347.483 275.012 347.524 273.664C347.524 263.357 347.524 253.098 347.524 242.791C347.524 242.598 347.524 242.406 347.524 242.213C347.565 241.635 347.318 241.442 346.865 241.491C346.618 241.539 346.411 241.491 346.164 241.491C339.982 241.539 333.759 241.539 327.577 241.539Z" fill="white"/>
<path d="M327.577 309.786C333.841 309.786 340.106 309.786 346.37 309.786C347.607 309.786 347.483 309.931 347.483 308.486C347.483 298.227 347.483 287.968 347.483 277.758C347.483 276.265 347.607 276.409 346.288 276.409C333.841 276.409 321.353 276.409 308.906 276.409C308.659 276.409 308.453 276.409 308.206 276.409C307.835 276.409 307.629 276.554 307.67 276.987C307.67 277.18 307.67 277.372 307.67 277.565C307.67 287.872 307.67 298.227 307.67 308.534C307.67 309.834 307.546 309.738 308.742 309.738C315.047 309.786 321.312 309.786 327.577 309.786Z" fill="white"/>
<path d="M327.659 311.279C321.353 311.279 315.006 311.279 308.7 311.279C307.753 311.279 307.711 311.279 307.711 312.291C307.711 322.742 307.711 333.145 307.711 343.597C307.711 344.608 307.711 344.608 308.577 344.608C321.271 344.608 333.965 344.608 346.618 344.608C347.483 344.608 347.483 344.608 347.483 343.597C347.483 333.145 347.483 322.742 347.483 312.291C347.483 311.279 347.483 311.279 346.618 311.279C346.37 311.279 346.164 311.279 345.917 311.279C339.858 311.279 333.759 311.279 327.659 311.279Z" fill="white"/>
<path d="M327.577 240.142C333.8 240.142 340.023 240.142 346.247 240.142C347.566 240.142 347.483 240.335 347.483 238.745C347.483 228.631 347.483 218.469 347.483 208.354C347.483 206.765 347.607 206.958 346.247 206.958C333.8 206.958 321.312 206.958 308.865 206.958C308.7 206.958 308.536 206.958 308.371 206.958C307.876 206.909 307.629 207.102 307.67 207.728C307.67 207.873 307.67 208.017 307.67 208.21C307.67 218.469 307.67 228.679 307.67 238.938C307.67 240.287 307.629 240.19 308.742 240.19C315.047 240.142 321.312 240.142 327.577 240.142Z" fill="white"/>
<path d="M327.577 172.184C321.394 172.184 315.253 172.184 309.071 172.184C308.824 172.184 308.536 172.184 308.288 172.184C307.794 172.136 307.629 172.425 307.67 172.954C307.67 173.243 307.67 173.484 307.67 173.773C307.67 183.839 307.67 193.954 307.67 204.02C307.67 204.26 307.67 204.501 307.67 204.694C307.629 205.272 307.752 205.609 308.329 205.513C308.494 205.513 308.659 205.513 308.824 205.513C321.353 205.513 333.882 205.513 346.37 205.513C346.576 205.513 346.782 205.513 346.947 205.513C347.359 205.561 347.483 205.32 347.442 204.887C347.442 204.598 347.442 204.357 347.442 204.068C347.442 193.954 347.442 183.791 347.442 173.677C347.442 173.388 347.442 173.147 347.442 172.858C347.483 172.28 347.236 172.087 346.782 172.136C346.535 172.136 346.329 172.136 346.082 172.136C339.982 172.184 333.759 172.184 327.577 172.184Z" fill="white"/>
<path d="M357.004 258.203C357.004 263.453 357.004 268.703 357.004 273.905C357.004 274.916 357.004 274.916 357.869 274.964C358.116 274.964 358.322 274.964 358.57 274.964C366.277 274.964 373.984 274.964 381.732 274.964C382.515 274.964 383.298 274.916 384.081 274.868C392.489 274.097 398.589 264.609 396.858 254.976C395.457 247.174 389.728 241.587 382.886 241.587C374.561 241.539 366.277 241.587 357.951 241.587C357.828 241.587 357.704 241.587 357.539 241.587C357.168 241.539 356.962 241.731 357.004 242.165C357.004 242.454 357.004 242.695 357.004 242.984C357.004 248.041 357.004 253.146 357.004 258.203Z" fill="white"/>
<path d="M357.004 153.93C357.004 159.18 357.004 164.429 357.004 169.631C357.004 170.643 357.004 170.643 357.869 170.691C357.951 170.691 358.075 170.691 358.158 170.691C366.236 170.691 374.314 170.691 382.392 170.691C383.463 170.691 384.576 170.594 385.647 170.354C393.355 168.571 398.465 159.565 396.817 150.607C395.374 142.804 389.604 137.314 382.762 137.314C374.52 137.314 366.277 137.314 358.034 137.314C357.951 137.314 357.828 137.314 357.745 137.314C357.045 137.314 357.045 137.314 357.004 138.132C357.004 138.373 357.004 138.614 357.004 138.807C357.004 143.864 357.004 148.873 357.004 153.93Z" fill="white"/>
<path d="M357.004 188.752C357.004 193.905 357.004 199.059 357.004 204.212C357.004 205.561 356.921 205.465 358.075 205.465C358.116 205.465 358.158 205.465 358.158 205.465C366.442 205.465 374.685 205.465 382.969 205.465C383.381 205.465 383.834 205.465 384.246 205.416C392.86 204.26 398.63 194.869 396.734 184.947C395.333 177.722 389.604 172.184 383.381 172.136C374.891 172.087 366.359 172.136 357.869 172.136C357.004 172.136 357.004 172.136 357.004 173.147C357.004 173.388 357.004 173.629 357.004 173.821C357.004 178.83 357.004 183.791 357.004 188.752Z" fill="white"/>
<path d="M357.004 293.073C357.004 298.275 357.004 303.477 357.004 308.678C357.004 309.786 357.004 309.786 357.993 309.834C358.116 309.834 358.24 309.834 358.405 309.834C363.433 309.834 368.42 309.834 373.448 309.834C376.786 309.834 380.125 309.882 383.422 309.786C390.717 309.545 396.693 302.658 397.146 294.085C397.641 284.597 391.17 276.505 383.01 276.457C374.684 276.409 366.4 276.457 358.075 276.457C357.869 276.457 357.663 276.457 357.498 276.457C357.168 276.457 357.045 276.65 357.045 277.035C357.045 277.324 357.045 277.661 357.045 277.95C357.004 282.959 357.004 288.016 357.004 293.073Z" fill="white"/>
<path d="M357.004 327.992C357.004 333.193 357.004 338.395 357.004 343.597C357.004 344.608 357.004 344.608 357.869 344.656C358.075 344.656 358.281 344.656 358.446 344.656C366.442 344.656 374.478 344.656 382.474 344.656C383.216 344.656 383.916 344.608 384.658 344.512C391.376 343.549 396.652 336.998 397.105 329.1C397.682 319.515 391.129 311.327 382.927 311.327C374.726 311.327 366.524 311.327 358.322 311.327C358.116 311.327 357.91 311.327 357.745 311.327C357.086 311.376 357.045 311.376 357.045 312.194C357.045 312.483 357.045 312.724 357.045 313.013C357.004 317.974 357.004 322.983 357.004 327.992Z" fill="white"/>
<path d="M357.004 223.526C357.004 228.631 357.004 233.785 357.004 238.89C357.004 240.19 356.921 240.142 358.075 240.142C358.158 240.142 358.199 240.142 358.281 240.142C366.442 240.142 374.561 240.142 382.721 240.142C383.834 240.142 384.947 239.998 386.06 239.709C393.726 237.638 398.506 228.631 396.775 219.673C395.127 211.244 388.203 206.283 382.969 206.909C374.808 206.909 366.607 206.909 358.446 206.909C358.199 206.909 357.91 206.909 357.663 206.909C357.168 206.861 357.004 207.15 357.045 207.68C357.045 207.969 357.045 208.21 357.045 208.499C357.004 213.508 357.004 218.517 357.004 223.526Z" fill="white"/>
<path d="M254.833 172.184C249.805 172.184 244.736 172.184 239.708 172.184C239.46 172.184 239.254 172.184 239.007 172.184C238.306 172.184 238.265 172.232 238.265 173.002C238.265 173.243 238.265 173.484 238.265 173.677C238.265 178.397 238.265 183.069 238.265 187.789C238.265 188.27 238.306 188.8 238.265 189.282C238.224 189.908 238.471 190.1 238.966 190.052C239.419 190.004 239.873 190.052 240.367 190.052C241.274 190.052 241.274 190.052 241.274 191.112C241.274 194.339 241.274 197.566 241.274 200.841C241.274 202.575 241.48 202.382 239.955 202.382C238.265 202.382 238.265 202.382 238.513 204.357C238.636 205.513 238.636 205.513 239.667 205.513C249.929 205.513 260.191 205.513 270.412 205.513C271.566 205.513 271.484 205.609 271.484 204.26C271.484 194.002 271.484 183.743 271.484 173.532C271.484 173.291 271.484 173.051 271.484 172.858C271.484 172.425 271.36 172.184 270.989 172.232C270.742 172.232 270.454 172.232 270.206 172.232C265.055 172.184 259.944 172.184 254.833 172.184Z" fill="white"/>
<path d="M137.167 137.747C150.355 137.747 163.544 137.747 176.732 137.747C176.98 137.747 177.268 137.747 177.515 137.747C177.928 137.795 178.092 137.603 178.051 137.073C177.969 135.339 177.928 133.605 177.886 131.871C177.845 130.908 177.639 129.945 177.268 129.078C175.99 126.284 174.012 124.791 171.292 124.791C148.624 124.791 125.956 124.791 103.288 124.791C103.124 124.791 102.959 124.791 102.794 124.791C99.6204 124.887 96.8178 128.018 96.6529 131.678C96.5705 133.22 96.4881 134.761 96.4881 136.302C96.4881 137.795 96.1584 137.699 97.6421 137.699C110.831 137.747 123.978 137.747 137.167 137.747Z" fill="#EDCFE4"/>
<path d="M289.495 344.608C294.729 344.608 299.963 344.608 305.197 344.608C305.444 344.608 305.733 344.608 305.98 344.608C306.31 344.608 306.475 344.464 306.475 344.03C306.475 343.741 306.475 343.5 306.475 343.211C306.475 339.455 306.475 335.65 306.475 331.893C306.475 327.799 306.475 323.754 306.475 319.66C306.475 318.745 306.475 318.745 305.733 318.745C305.609 318.745 305.486 318.745 305.321 318.745C294.811 318.745 284.302 318.745 273.792 318.745C273.586 318.745 273.38 318.745 273.215 318.745C272.844 318.696 272.679 318.889 272.679 319.322C272.679 319.515 272.679 319.708 272.679 319.9C272.679 327.703 272.679 335.554 272.679 343.356C272.679 344.705 272.638 344.608 273.751 344.608C279.026 344.608 284.26 344.608 289.495 344.608Z" fill="#008ACE"/>
<path d="M255.245 206.909C250.217 206.909 245.23 206.909 240.202 206.909C239.955 206.909 239.749 206.909 239.502 206.909C239.048 206.861 238.925 207.15 239.048 207.632C239.131 207.873 239.172 208.162 239.254 208.402C240.202 211.87 241.768 215.001 243.623 217.939C245.931 221.599 248.569 224.971 251.165 228.342C253.885 231.906 256.606 235.47 258.707 239.564C258.996 240.094 259.326 240.142 259.779 240.142C263.365 240.142 266.95 240.142 270.536 240.142C271.401 240.142 271.401 240.142 271.401 239.131C271.401 239.034 271.401 238.986 271.401 238.89C271.401 228.631 271.401 218.42 271.401 208.162C271.401 206.861 271.484 206.909 270.33 206.909C265.343 206.909 260.274 206.909 255.245 206.909Z" fill="white"/>
<path d="M137.125 123.442C140.175 123.442 143.184 123.442 146.234 123.442C148.253 123.442 150.273 123.442 152.251 123.442C152.952 123.442 152.952 123.394 152.952 122.576C152.952 120.745 152.952 118.963 152.952 117.133C152.952 116.266 152.952 116.218 152.169 116.218C150.273 116.218 148.336 116.218 146.44 116.218C146.192 116.218 145.986 116.218 145.739 116.218C145.368 116.218 145.08 115.977 145.121 115.496C145.121 115.014 145.409 114.821 145.78 114.821C146.028 114.821 146.234 114.821 146.481 114.821C148.377 114.821 150.314 114.821 152.21 114.821C152.91 114.821 152.952 114.773 152.952 113.954C152.952 112.365 152.952 110.776 152.952 109.234C152.952 107.452 153.116 107.693 151.674 107.693C142.03 107.693 132.344 107.693 122.7 107.693C122.494 107.693 122.288 107.741 122.123 107.693C121.588 107.597 121.464 107.934 121.464 108.512C121.464 110.294 121.464 112.076 121.464 113.81C121.464 114.821 121.464 114.821 122.329 114.869C122.535 114.869 122.742 114.869 122.906 114.869C128.264 114.869 133.581 114.869 138.939 114.869C139.186 114.869 139.475 114.869 139.722 114.869C140.052 114.869 140.299 115.11 140.299 115.496C140.34 115.977 140.093 116.218 139.681 116.218C139.433 116.218 139.227 116.218 138.98 116.218C135.93 116.218 132.921 116.218 129.872 116.218C127.316 116.218 124.72 116.218 122.165 116.218C121.464 116.218 121.423 116.218 121.423 117.037C121.423 118.867 121.423 120.745 121.423 122.576C121.423 123.105 121.505 123.491 122.082 123.394C122.329 123.346 122.535 123.394 122.783 123.394C127.564 123.442 132.344 123.442 137.125 123.442Z" fill="#B2ACBF"/>
<path d="M289.701 108.367C284.343 108.367 279.026 108.367 273.668 108.367C272.679 108.367 272.679 108.367 272.679 109.475C272.679 113.039 272.679 116.651 272.679 120.216C272.679 121.275 272.679 121.323 273.586 121.323C284.219 121.323 294.894 121.323 305.527 121.323C306.475 121.323 306.475 121.323 306.475 120.264C306.475 116.651 306.475 113.039 306.475 109.379C306.475 108.367 306.475 108.367 305.609 108.367C305.403 108.367 305.197 108.367 305.032 108.367C299.922 108.367 294.811 108.367 289.701 108.367Z" fill="#008ACE"/>
<path d="M289.536 317.348C294.811 317.348 300.087 317.348 305.362 317.348C306.475 317.348 306.475 317.348 306.475 316.144C306.475 313.495 306.475 310.846 306.475 308.197C306.475 307.185 306.475 307.185 305.609 307.137C305.444 307.137 305.28 307.137 305.115 307.137C294.77 307.137 284.425 307.137 274.08 307.137C273.833 307.137 273.627 307.137 273.38 307.137C272.679 307.185 272.679 307.185 272.679 308.004C272.679 310.798 272.679 313.639 272.679 316.433C272.679 317.348 272.679 317.348 273.421 317.348C273.627 317.348 273.833 317.348 273.998 317.348C279.191 317.348 284.384 317.348 289.536 317.348Z" fill="#008ACE"/>
<path d="M271.443 258.251C271.443 253.098 271.443 247.945 271.443 242.791C271.443 241.442 271.525 241.587 270.371 241.587C267.156 241.587 263.9 241.587 260.686 241.587C259.738 241.587 259.697 241.539 260.15 242.647C261.428 245.825 262.087 249.149 262.005 252.713C261.963 255.699 262.005 258.733 262.005 261.719C262.005 265.861 262.005 269.955 262.005 274.097C262.005 275.012 262.005 275.012 262.664 275.06C265.384 275.06 268.146 275.06 270.866 275.06C271.36 275.06 271.525 274.82 271.484 274.29C271.484 274.001 271.484 273.76 271.484 273.471C271.443 268.366 271.443 263.309 271.443 258.251Z" fill="white"/>
<path d="M271.443 328.04C271.443 322.935 271.443 317.781 271.443 312.676C271.443 312.387 271.443 312.05 271.443 311.761C271.443 311.472 271.278 311.327 271.072 311.327C270.824 311.327 270.618 311.327 270.371 311.327C267.939 311.327 265.508 311.327 263.035 311.327C261.963 311.327 261.963 311.327 261.963 312.58C261.963 312.724 261.963 312.869 261.963 313.061C261.963 321.056 261.963 329.003 261.963 336.998C261.963 339.888 261.18 342.248 259.284 344.127C259.161 344.223 258.955 344.319 259.037 344.56C259.12 344.801 259.326 344.705 259.449 344.705C263.2 344.705 266.95 344.705 270.701 344.705C271.195 344.705 271.443 344.56 271.401 343.934C271.36 343.645 271.401 343.404 271.401 343.115C271.443 338.058 271.443 333.049 271.443 328.04Z" fill="white"/>
<path d="M262.005 293.122C262.005 298.227 262.005 303.38 262.005 308.486C262.005 309.931 261.881 309.834 263.2 309.834C265.59 309.834 268.022 309.834 270.412 309.834C271.608 309.834 271.484 309.834 271.484 308.582C271.484 299.816 271.484 291.051 271.484 282.237C271.484 280.744 271.484 279.251 271.484 277.758C271.484 276.457 271.608 276.457 270.454 276.457C269.135 276.457 267.816 276.457 266.497 276.457C265.261 276.457 263.983 276.457 262.746 276.457C262.046 276.457 262.046 276.505 262.046 277.324C262.046 277.613 262.046 277.854 262.046 278.143C262.005 283.104 262.005 288.113 262.005 293.122Z" fill="white"/>
<path d="M137.826 101.191C140.216 101.191 142.648 101.191 145.038 101.191C145.822 101.191 145.822 101.191 145.822 100.324C145.822 97.1453 145.822 94.0147 145.822 90.8359C145.822 90.0172 145.78 89.969 145.121 89.969C140.299 89.969 135.436 89.969 130.614 89.969C129.872 89.969 129.872 90.0172 129.872 90.8841C129.872 93.9665 129.872 97.049 129.872 100.131C129.872 101.143 129.872 101.143 130.737 101.143C133.086 101.239 135.477 101.239 137.826 101.191Z" fill="white"/>
<path d="M145.657 75.2792C143.761 75.2792 141.824 75.2311 139.928 75.2792C136.961 75.3756 134.529 78.1209 134.405 81.5886C134.323 83.6596 134.405 85.7307 134.364 87.8017C134.364 88.4278 134.57 88.5723 135.065 88.5723C136.796 88.5723 138.485 88.5241 140.216 88.5723C140.752 88.5723 140.917 88.3315 140.917 87.7535C140.917 86.5494 140.958 85.3454 140.917 84.1895C140.752 81.4441 142.071 79.7103 144.626 79.8548C146.893 79.9992 149.16 79.9029 151.427 79.8548C152.251 79.8548 152.251 79.8066 152.251 78.8915C152.251 78.0246 152.251 77.2058 152.251 76.3388C152.251 75.2311 152.251 75.2311 151.344 75.2311C149.407 75.2792 147.511 75.2792 145.657 75.2792Z" fill="white"/>
<path d="M137.167 106.296C141.865 106.296 146.522 106.296 151.221 106.296C153.158 106.296 153.199 106.248 152.993 103.985C152.91 103.118 152.539 102.684 151.756 102.588C151.509 102.588 151.303 102.588 151.056 102.588C141.783 102.588 132.509 102.588 123.277 102.588C123.03 102.588 122.824 102.588 122.577 102.588C121.876 102.684 121.464 103.069 121.423 103.888C121.381 104.466 121.423 105.044 121.423 105.622C121.423 106.056 121.546 106.296 121.958 106.248C122.206 106.248 122.412 106.248 122.659 106.248C127.481 106.296 132.303 106.296 137.167 106.296Z" fill="#B2ACBF"/>
<path d="M234.515 200.937C236.122 200.937 237.729 200.937 239.337 200.937C239.831 200.937 240.037 200.793 240.037 200.167C239.996 197.566 239.996 194.917 240.037 192.316C240.037 191.69 239.831 191.545 239.337 191.545C236.081 191.545 232.825 191.545 229.569 191.545C229.074 191.545 228.868 191.69 228.868 192.316C228.868 194.917 228.91 197.566 228.868 200.167C228.868 200.793 229.074 200.937 229.569 200.937C231.218 200.889 232.866 200.937 234.515 200.937Z" fill="white"/>
<path d="M202.12 232.051C202.12 232.099 202.079 232.291 202.12 232.34C202.244 232.436 202.326 232.291 202.409 232.195C202.45 232.147 202.491 232.099 202.532 232.002C204.923 228.872 207.313 225.741 209.663 222.562C211.929 219.48 214.031 216.301 215.639 212.689C215.803 212.304 215.968 211.918 216.092 211.533C216.133 211.437 216.216 211.292 216.092 211.244C216.051 211.196 215.927 211.244 215.845 211.292C215.639 211.437 215.433 211.533 215.226 211.678C211.517 214.278 208.467 217.698 206.077 221.888C204.305 224.971 202.986 228.342 202.12 232.051Z" fill="white"/>
<path d="M434.322 162.744C434.322 164.574 434.322 166.452 434.322 168.282C434.322 169.149 434.322 169.149 435.105 169.198C435.517 169.198 435.888 169.198 436.3 169.198C437.207 169.198 437.248 169.198 437.248 168.138C437.248 164.959 437.248 161.732 437.248 158.553C437.248 157.831 437.536 156.916 437.124 156.434C436.63 155.856 435.805 156.242 435.146 156.193C434.404 156.193 434.363 156.193 434.363 157.109C434.322 158.939 434.322 160.817 434.322 162.744Z" fill="#A3CEB5"/>
<path d="M438.443 162.599C438.443 164.526 438.443 166.452 438.443 168.379C438.443 168.957 438.608 169.246 439.102 169.198C439.638 169.149 440.174 169.198 440.669 169.198C441.369 169.198 441.369 169.149 441.41 168.331C441.41 165.826 441.41 163.322 441.41 160.817C441.41 159.517 441.41 158.216 441.41 156.916C441.41 156.386 441.246 156.145 440.792 156.145C440.215 156.193 439.679 156.193 439.102 156.145C438.608 156.097 438.402 156.338 438.402 156.964C438.484 158.842 438.443 160.721 438.443 162.599Z" fill="#A3CEB5"/>
<path d="M445.573 162.599C445.573 160.721 445.573 158.843 445.573 156.964C445.573 156.386 445.408 156.097 444.914 156.145C444.501 156.194 444.048 156.145 443.636 156.145C442.647 156.145 442.647 156.145 442.647 157.301C442.647 160.865 442.647 164.478 442.647 168.042C442.647 168.234 442.647 168.427 442.647 168.62C442.647 169.005 442.77 169.198 443.1 169.198C443.677 169.198 444.213 169.198 444.79 169.198C445.532 169.198 445.573 169.198 445.573 168.282C445.573 166.404 445.573 164.478 445.573 162.599Z" fill="#A3CEB5"/>
<path d="M449.695 162.647C449.695 160.817 449.695 158.939 449.695 157.109C449.695 156.193 449.694 156.193 448.953 156.145C448.499 156.145 448.046 156.145 447.551 156.145C446.809 156.145 446.81 156.193 446.768 157.06C446.768 159.276 446.768 161.54 446.768 163.755C446.768 165.248 446.768 166.741 446.768 168.282C446.768 169.101 446.81 169.149 447.469 169.149C447.964 169.149 448.458 169.149 448.953 169.149C449.653 169.149 449.653 169.101 449.653 168.282C449.695 166.404 449.695 164.526 449.695 162.647Z" fill="#A3CEB5"/>
<path d="M450.931 162.599C450.931 162.792 450.931 162.984 450.931 163.177C450.931 164.911 450.931 166.645 450.931 168.379C450.931 168.957 451.096 169.198 451.632 169.149C452.044 169.101 452.415 169.149 452.827 169.149C454.022 169.149 453.981 169.294 453.981 167.849C453.981 164.333 453.981 160.865 453.981 157.349C453.981 157.109 453.981 156.868 453.981 156.675C453.981 156.29 453.816 156.097 453.527 156.145C452.909 156.145 452.291 156.145 451.673 156.145C451.137 156.097 451.013 156.386 451.013 156.964C450.931 158.842 450.931 160.721 450.931 162.599Z" fill="#A3CEB5"/>
<path d="M462.224 162.696C462.224 160.817 462.224 158.939 462.224 157.06C462.224 156.242 462.224 156.193 461.523 156.193C460.987 156.193 460.451 156.193 459.957 156.193C459.256 156.193 459.256 156.242 459.215 157.06C459.215 159.083 459.215 161.154 459.215 163.177C459.215 164.911 459.215 166.645 459.215 168.379C459.215 169.198 459.215 169.246 459.916 169.246C460.451 169.246 460.987 169.246 461.482 169.246C462.182 169.246 462.182 169.198 462.182 168.379C462.224 166.452 462.224 164.574 462.224 162.696Z" fill="#A3CEB5"/>
<path d="M458.02 162.792C458.02 161.347 458.02 159.854 458.02 158.409C458.02 157.735 458.267 156.868 457.896 156.386C457.484 155.856 456.701 156.193 456.124 156.193C455.217 156.145 455.217 156.193 455.217 157.301C455.217 160.48 455.217 163.659 455.217 166.886C455.217 167.656 454.929 168.62 455.423 169.101C455.877 169.535 456.701 169.246 457.36 169.246C458.061 169.246 458.061 169.198 458.061 168.379C458.02 166.452 458.02 164.622 458.02 162.792Z" fill="#A3CEB5"/>
<path d="M463.501 162.599C463.501 164.526 463.501 166.452 463.501 168.379C463.501 168.957 463.625 169.246 464.161 169.198C464.532 169.149 464.944 169.198 465.356 169.198C466.263 169.198 466.263 169.198 466.263 168.138C466.263 164.911 466.304 161.684 466.263 158.457C466.221 155.808 466.675 156.242 464.284 156.194C463.543 156.194 463.501 156.194 463.501 157.109C463.46 158.891 463.501 160.769 463.501 162.599Z" fill="#A3CEB5"/>
<path d="M289.577 85.9233C291.143 85.9233 292.462 84.3821 292.462 82.5518C292.462 80.6735 291.184 79.1804 289.577 79.1804C287.97 79.1804 286.692 80.6735 286.692 82.5518C286.692 84.3821 287.97 85.9233 289.577 85.9233Z" fill="white"/>
<path d="M221.409 196.217C221.409 195.013 221.409 193.857 221.409 192.653C221.409 191.497 221.409 191.497 220.419 191.545C220.337 191.545 220.213 191.545 220.131 191.545C219.678 191.497 219.472 191.738 219.513 192.268C219.513 194.917 219.513 197.566 219.513 200.215C219.513 200.793 219.719 200.985 220.172 200.937C220.378 200.937 220.584 200.937 220.749 200.937C221.244 200.985 221.45 200.793 221.45 200.167C221.367 198.818 221.409 197.518 221.409 196.217Z" fill="white"/>
<path d="M222.645 196.169C222.645 197.277 222.645 198.385 222.645 199.492C222.645 200.985 222.686 200.985 223.964 200.937C224.417 200.889 224.541 200.696 224.541 200.215C224.541 197.566 224.541 194.917 224.541 192.268C224.541 191.738 224.376 191.497 223.881 191.545C223.675 191.545 223.469 191.545 223.304 191.545C222.769 191.497 222.645 191.786 222.645 192.364C222.645 193.616 222.645 194.869 222.645 196.169Z" fill="white"/>
<path d="M216.463 196.265C216.463 197.614 216.463 198.962 216.463 200.311C216.463 200.744 216.586 200.937 216.957 200.937C217.122 200.937 217.287 200.937 217.452 200.937C218.235 200.937 218.276 200.937 218.276 199.974C218.276 197.469 218.276 194.965 218.276 192.46C218.276 191.545 218.276 191.545 217.493 191.545C217.37 191.545 217.246 191.545 217.081 191.545C216.545 191.497 216.422 191.786 216.422 192.364C216.463 193.665 216.463 194.965 216.463 196.265Z" fill="white"/>
<path d="M225.777 196.121C225.777 197.518 225.777 198.866 225.777 200.263C225.777 200.696 225.901 200.937 226.272 200.889C226.437 200.889 226.602 200.889 226.766 200.889C227.591 200.889 227.632 200.889 227.632 199.878C227.632 197.518 227.632 195.206 227.632 192.846C227.632 191.449 227.632 191.497 226.437 191.497C225.901 191.497 225.777 191.738 225.777 192.316C225.777 193.616 225.777 194.869 225.777 196.121Z" fill="white"/>
<path d="M395.044 395.276C411.283 395.276 427.521 395.276 443.801 395.276C444.131 395.276 444.46 395.276 444.79 395.276C445.12 395.276 445.367 395.469 445.408 395.902C445.449 396.336 445.202 396.625 444.831 396.673C444.543 396.721 444.254 396.673 443.924 396.673C432.673 396.673 421.463 396.673 410.211 396.673C388.903 396.673 367.554 396.673 346.247 396.673C345.958 396.673 345.67 396.673 345.34 396.673C344.969 396.673 344.722 396.432 344.68 395.95C344.68 395.469 344.928 395.276 345.299 395.228C345.587 395.228 345.876 395.228 346.205 395.228C362.485 395.276 378.765 395.276 395.044 395.276Z" fill="#151D38"/>
<path d="M331.739 367.004C347.442 367.004 363.103 367.004 378.806 367.004C379.136 367.004 379.465 367.004 379.795 367.004C380.084 367.004 380.29 367.197 380.331 367.534C380.372 367.967 380.166 368.208 379.877 368.305C379.754 368.353 379.63 368.353 379.507 368.353C379.259 368.353 378.971 368.353 378.723 368.353C347.401 368.353 316.037 368.353 284.714 368.353C284.343 368.353 283.972 368.353 283.642 368.305C283.312 368.256 283.106 368.016 283.106 367.582C283.106 367.149 283.354 366.956 283.683 366.956C284.013 366.956 284.343 366.956 284.672 366.956C300.293 367.004 316.037 367.004 331.739 367.004Z" fill="#151D38"/>
<path d="M191.157 413.626C179.906 413.626 168.613 413.626 157.362 413.626C157.073 413.626 156.785 413.626 156.455 413.626C156.166 413.626 155.96 413.434 155.919 413.048C155.878 412.663 156.043 412.374 156.372 412.278C156.537 412.229 156.702 412.229 156.867 412.229C157.114 412.229 157.32 412.229 157.568 412.229C179.988 412.229 202.368 412.229 224.788 412.229C225.118 412.229 225.448 412.229 225.777 412.229C226.148 412.278 226.395 412.47 226.395 412.952C226.395 413.434 226.148 413.626 225.777 413.626C225.489 413.626 225.2 413.626 224.871 413.626C213.66 413.626 202.409 413.626 191.157 413.626Z" fill="#151D38"/>
<path d="M130.449 367.004C139.227 367.004 147.965 367.004 156.743 367.004C157.032 367.004 157.32 367.004 157.65 367.004C158.021 367.004 158.227 367.245 158.227 367.63C158.227 368.016 158.021 368.305 157.691 368.353C157.403 368.401 157.114 368.401 156.785 368.401C149.819 368.401 142.895 368.401 135.93 368.401C125.338 368.401 114.705 368.401 104.113 368.401C103.783 368.401 103.453 368.401 103.124 368.353C102.794 368.305 102.588 368.064 102.588 367.63C102.588 367.197 102.835 367.004 103.165 367.004C103.453 367.004 103.742 367.004 104.071 367.004C112.85 367.004 121.67 367.004 130.449 367.004Z" fill="#151D38"/>
<path d="M273.256 395.276C279.809 395.276 286.362 395.276 292.915 395.276C293.204 395.276 293.492 395.276 293.822 395.276C294.152 395.276 294.399 395.469 294.399 395.902C294.399 396.336 294.193 396.625 293.822 396.673C293.616 396.721 293.41 396.673 293.245 396.673C279.85 396.673 266.497 396.673 253.102 396.673C252.855 396.673 252.649 396.673 252.402 396.625C252.113 396.528 251.948 396.287 251.948 395.95C251.948 395.565 252.113 395.276 252.484 395.276C252.773 395.276 253.061 395.276 253.391 395.276C260.026 395.276 266.662 395.276 273.256 395.276Z" fill="#151D38"/>
<path d="M338.54 418.635C332.028 418.635 325.475 418.635 318.963 418.635C318.715 418.635 318.427 418.635 318.18 418.635C317.768 418.635 317.438 418.491 317.397 417.961C317.355 417.431 317.685 417.238 318.097 417.19C318.303 417.19 318.509 417.19 318.674 417.19C331.945 417.19 345.258 417.19 358.529 417.19C358.776 417.19 358.982 417.19 359.229 417.238C359.6 417.287 359.847 417.479 359.847 417.961C359.847 418.443 359.559 418.635 359.188 418.635C358.899 418.683 358.611 418.635 358.281 418.635C351.728 418.635 345.134 418.635 338.54 418.635Z" fill="#151D38"/>
<path d="M115.241 396.48C108.646 396.48 102.052 396.48 95.4577 396.48C95.1692 396.48 94.8807 396.48 94.551 396.48C94.18 396.48 94.0152 396.239 93.974 395.854C93.974 395.469 94.18 395.18 94.4685 395.131C94.7983 395.083 95.128 395.083 95.4577 395.083C102.794 395.083 110.089 395.083 117.425 395.083C123.277 395.083 129.171 395.083 135.023 395.083C135.312 395.083 135.6 395.083 135.93 395.131C136.26 395.18 136.466 395.469 136.466 395.854C136.466 396.239 136.26 396.48 135.889 396.48C135.6 396.48 135.312 396.48 134.982 396.48C128.429 396.48 121.835 396.48 115.241 396.48Z" fill="#151D38"/>
<path d="M405.348 418.635C402.133 418.635 398.96 418.635 395.745 418.635C395.498 418.635 395.209 418.635 394.962 418.587C394.632 418.539 394.426 418.298 394.426 417.913C394.426 417.527 394.632 417.238 394.962 417.238C395.209 417.19 395.498 417.19 395.745 417.19C402.133 417.19 408.521 417.19 414.91 417.19C415.157 417.19 415.445 417.19 415.693 417.238C416.022 417.287 416.228 417.527 416.228 417.913C416.228 418.298 416.022 418.539 415.693 418.635C415.445 418.683 415.157 418.683 414.91 418.683C411.736 418.635 408.521 418.635 405.348 418.635Z" fill="#151D38"/>
<path d="M181.884 396.48C178.711 396.48 175.578 396.48 172.405 396.48C172.158 396.48 171.869 396.48 171.622 396.48C171.292 396.48 171.045 396.239 171.045 395.854C171.045 395.469 171.21 395.18 171.539 395.131C171.745 395.083 171.993 395.083 172.24 395.083C178.711 395.083 185.222 395.083 191.693 395.083C191.94 395.083 192.229 395.083 192.476 395.18C192.765 395.276 192.888 395.565 192.888 395.902C192.888 396.239 192.682 396.48 192.394 396.48C192.146 396.528 191.858 396.48 191.611 396.48C188.314 396.48 185.099 396.48 181.884 396.48Z" fill="#151D38"/>
<path d="M425.996 366.378C427.521 366.378 429.005 366.378 430.53 366.378C430.777 366.378 430.983 366.378 431.231 366.426C431.519 366.474 431.684 366.763 431.684 367.1C431.725 367.438 431.56 367.678 431.272 367.775C431.066 367.823 430.818 367.823 430.571 367.823C427.48 367.823 424.389 367.823 421.298 367.823C421.092 367.823 420.886 367.823 420.721 367.775C420.35 367.727 420.226 367.438 420.226 367.052C420.226 366.667 420.432 366.378 420.762 366.378C421.504 366.378 422.287 366.378 423.029 366.378C424.018 366.378 425.007 366.378 425.996 366.378Z" fill="#151D38"/>
<path d="M318.262 395.276C319.787 395.276 321.271 395.276 322.796 395.276C323.043 395.276 323.249 395.276 323.496 395.324C323.744 395.372 323.908 395.565 323.95 395.854C323.991 396.191 323.867 396.48 323.62 396.625C323.455 396.721 323.249 396.721 323.043 396.721C319.828 396.721 316.614 396.721 313.358 396.721C313.193 396.721 313.028 396.721 312.863 396.673C312.575 396.576 312.451 396.287 312.451 395.95C312.451 395.613 312.616 395.372 312.945 395.324C313.193 395.276 313.399 395.276 313.646 395.276C315.171 395.276 316.737 395.276 318.262 395.276Z" fill="#151D38"/>
<path d="M482.954 395.276C484.438 395.276 485.922 395.276 487.406 395.276C487.612 395.276 487.818 395.276 487.983 395.276C488.353 395.276 488.642 395.42 488.683 395.902C488.724 396.432 488.436 396.673 488.024 396.673C487.818 396.673 487.612 396.673 487.447 396.673C484.438 396.673 481.471 396.673 478.462 396.673C478.215 396.673 478.009 396.673 477.761 396.673C477.432 396.625 477.226 396.384 477.226 395.998C477.226 395.613 477.39 395.324 477.761 395.324C478.009 395.276 478.215 395.324 478.462 395.324C479.905 395.276 481.429 395.276 482.954 395.276Z" fill="#151D38"/>
<path d="M145.945 245.873C143.555 246.066 141.123 246.066 138.733 246.018C138.197 246.018 137.908 246.211 137.744 246.837C136.631 250.449 135.312 253.917 133.746 257.24C133.663 257.384 133.622 257.529 133.581 257.673C133.54 257.722 133.498 257.866 133.54 257.866C133.581 257.962 133.705 257.962 133.787 257.914C134.075 257.77 134.364 257.577 134.694 257.433C138.815 255.024 142.978 252.664 147.264 250.69C147.965 250.353 148.707 250.064 149.407 249.871C152.828 248.908 156.208 251.509 156.908 255.554C157.568 259.504 155.301 263.453 151.88 264.127C150.479 264.416 149.119 264.127 147.759 263.887C142.937 263.068 138.156 261.864 133.416 260.611C133.334 260.563 133.21 260.563 133.128 260.515C132.303 260.322 132.303 260.322 131.809 261.189C128.388 267.595 124.225 273.278 119.362 278.287C115.488 282.237 111.284 285.56 106.75 288.353C106.503 288.498 106.256 288.594 106.05 288.787C105.72 289.028 105.514 288.883 105.39 288.498C105.267 288.161 105.019 287.824 105.514 287.535C105.967 287.294 106.379 287.005 106.833 286.716C112.356 283.248 117.342 278.962 121.794 273.76C125.173 269.811 128.141 265.524 130.655 260.804C130.696 260.708 130.737 260.611 130.82 260.515C131.108 260.082 130.984 259.889 130.531 259.744C128.305 259.07 126.08 258.444 123.854 257.722C120.804 256.758 117.755 255.795 114.787 254.495C113.468 253.917 112.232 253.242 111.366 251.894C109.924 249.678 109.594 247.27 110.46 244.718C111.325 242.117 113.015 240.576 115.405 240.142C117.425 239.805 119.197 240.527 120.64 242.165C121.876 243.562 122.948 245.103 124.06 246.644C126.41 250.015 128.676 253.483 130.943 256.951C131.108 257.192 131.273 257.433 131.397 257.673C131.891 258.396 131.891 258.444 132.303 257.625C133.292 255.602 134.158 253.531 134.982 251.46C135.6 249.823 136.219 248.137 136.713 246.451C137.002 245.584 136.96 245.584 136.219 245.247C133.251 243.947 130.284 242.647 127.358 241.298C125.256 240.335 123.154 239.275 121.134 238.071C119.28 236.963 118.167 235.181 117.796 232.773C117.301 229.739 118.703 226.464 121.093 225.067C123.566 223.622 126.616 224.2 128.429 226.56C130.119 228.727 131.438 231.232 132.798 233.688C134.24 236.337 135.642 238.986 137.043 241.635C137.167 241.876 137.29 242.165 137.455 242.406C137.62 242.695 137.785 242.598 137.867 242.309C137.908 242.117 137.95 241.924 138.032 241.78C139.104 237.541 139.804 233.255 140.258 228.872C140.34 227.86 140.34 227.86 139.475 227.475C135.023 225.597 130.572 223.67 126.245 221.407C125.297 220.925 124.349 220.347 123.442 219.769C121.011 218.083 119.939 214.712 120.722 211.581C121.505 208.402 123.978 206.235 126.781 206.283C128.676 206.331 130.284 207.198 131.52 208.932C132.509 210.377 133.416 211.87 134.323 213.411C136.301 216.879 138.156 220.395 140.01 223.959C140.134 224.2 140.216 224.682 140.505 224.585C140.752 224.489 140.629 224.056 140.67 223.767C140.876 220.78 140.752 217.842 140.546 214.905C139.969 206.62 138.279 198.673 135.436 191.064C135.023 190.004 134.611 188.945 134.199 187.933C133.952 187.355 134.199 187.211 134.57 186.97C134.982 186.729 135.147 186.873 135.312 187.307C136.754 190.823 137.991 194.435 138.98 198.144C140.587 204.212 141.535 210.377 141.824 216.735C141.947 219.191 141.989 221.647 141.865 224.104C141.865 224.296 141.783 224.537 141.989 224.585C142.195 224.682 142.277 224.441 142.36 224.296C144.173 221.744 145.986 219.191 147.841 216.687C149.407 214.567 150.973 212.4 152.787 210.57C155.919 207.391 160.659 208.547 162.472 212.882C163.997 216.59 162.637 221.021 159.381 222.659C157.362 223.67 155.26 224.248 153.158 224.874C149.696 225.886 146.192 226.801 142.648 227.668C142.566 227.668 142.524 227.716 142.442 227.716C141.618 227.957 141.618 227.957 141.535 228.872C141.37 230.75 141.123 232.629 140.835 234.459C140.422 236.963 139.928 239.42 139.351 241.876C139.268 242.165 139.021 242.55 139.268 242.695C139.475 242.839 139.722 242.454 139.928 242.261C141.37 240.913 142.813 239.564 144.297 238.264C146.646 236.145 148.995 234.025 151.509 232.195C152.869 231.184 154.312 230.702 155.919 230.895C158.928 231.28 161.277 234.17 161.401 237.782C161.565 241.346 159.422 244.573 156.455 245.199C154.27 245.681 152.045 245.729 149.861 245.825C148.377 245.97 147.182 245.873 145.945 245.873Z" fill="#151D38"/>
<path d="M480.564 267.21C480.399 287.342 466.592 302.61 450.148 302.514C433.168 302.417 419.773 286.138 420.061 266.487C420.35 247.607 433.497 231.81 450.436 231.858C466.798 232.003 480.399 247.222 480.564 267.21Z" fill="#151D38"/>
<path d="M421.339 267.21C421.257 285.367 433.827 301.02 450.23 301.069C466.263 301.117 479.328 286.09 479.286 267.162C479.245 247.945 465.892 233.351 450.354 233.351C434.322 233.351 421.339 248.474 421.339 267.21Z" fill="white"/>
<path d="M450.272 291.291C438.567 291.243 429.541 279.925 429.706 266.776C429.87 253.82 439.102 243.128 450.313 243.128C462.059 243.128 471.208 254.447 470.92 267.836C470.631 280.599 461.729 291.34 450.272 291.291Z" fill="#151D38"/>
<path d="M430.942 267.258C430.942 279.732 439.679 289.895 450.313 289.895C460.946 289.895 469.683 279.684 469.683 267.354C469.683 254.784 460.987 244.525 450.313 244.621C439.185 244.669 430.901 255.169 430.942 267.258Z" fill="#A3CEB5"/>
<path d="M456.33 269.666C456.33 273.375 453.94 276.361 450.766 276.65C447.675 276.939 444.914 274.434 444.378 270.87C444.172 269.522 444.337 268.269 444.749 267.017C445.285 265.235 446.15 263.646 447.098 262.105C447.881 260.756 448.747 259.504 449.695 258.3C450.23 257.625 450.478 257.577 450.972 258.251C452.827 260.66 454.475 263.26 455.671 266.198C456.042 267.306 456.33 268.462 456.33 269.666Z" fill="#151D38"/>
<path d="M455.135 269.762C455.135 269.136 455.094 268.51 454.887 267.932C453.981 264.898 452.332 262.394 450.601 259.937C450.313 259.504 450.107 259.745 449.901 260.034C448.582 261.912 447.304 263.838 446.397 266.006C446.15 266.632 445.903 267.258 445.697 267.932C445.12 270.196 445.573 272.171 447.016 273.712C448.499 275.301 450.271 275.735 452.167 274.771C454.063 273.856 455.011 272.122 455.135 269.762Z" fill="#ACDCF6"/>
</svg>
