<?xml version="1.0"?>
<svg xmlns="http://www.w3.org/2000/svg" xmlns:xlink="http://www.w3.org/1999/xlink" xmlns:svgjs="http://svgjs.com/svgjs" version="1.1" width="512" height="512" x="0" y="0" viewBox="0 0 64 64" style="enable-background:new 0 0 512 512" xml:space="preserve" class=""><g><g xmlns="http://www.w3.org/2000/svg" id="Filled_outline" data-name="Filled outline"><path d="m40.9 4.234-3.9 4.866 3.9 3.9 4.87-3.9c1.758-1.256 1.528-3.336 0-4.864l-.006-.006c-1.532-1.524-3.612-1.754-4.864.004z" fill="#394d5c" data-original="#394d5c" style=""/><path d="m35.379 6.843h4.243v11.314h-4.243z" fill="#a88ec2" transform="matrix(.707 -.707 .707 .707 2.145 30.178)" data-original="#f9bb4b" style="" class=""/><path d="m34.5 12.5-15.5 15.5-2 3 2 2 3-2 15.5-15.5z" fill="#ffc7c7" data-original="#4a9d86" style="" class=""/><path d="m19 41a3 3 0 0 1 -6 0c0-1.657 3-5 3-5s3 3.343 3 5z" fill="#ffe2e2" data-original="#5ac6aa" style="" class=""/><path d="m36 30h10a4 4 0 0 1 4 4v25a2 2 0 0 1 -2 2h-14a2 2 0 0 1 -2-2v-25a4 4 0 0 1 4-4z" fill="#ffe2e2" data-original="#5ac6aa" style="" class=""/><path d="m36 26h10v4h-10z" fill="#cab8dc" data-original="#f3e451" style="" class=""/><path d="m36 22h10v4h-10z" fill="#a88ec2" data-original="#f9bb4b" style="" class=""/><path d="m32 35h18v18h-18z" fill="#ffc7c7" data-original="#4a9d86" style="" class=""/><path d="m41 56h2v2h-2z" fill="#f4f4e6" data-original="#f4f4e6" style=""/><path d="m45 56h2v2h-2z" fill="#f4f4e6" data-original="#f4f4e6" style=""/><g fill="#f3e451"><path d="m35 38h8v2h-8z" fill="#cab8dc" data-original="#f3e451" style="" class=""/><path d="m35 42h4v2h-4z" fill="#cab8dc" data-original="#f3e451" style="" class=""/><path d="m35 48h10v2h-10z" fill="#cab8dc" data-original="#f3e451" style="" class=""/></g><path d="m39.293 18.707a1 1 0 0 0 1.414 0l3-3a1 1 0 0 0 0-1.414l-1.256-1.256 3.9-3.12a3.7 3.7 0 0 0 1.64-2.75 4.716 4.716 0 0 0 -1.52-3.641 4.673 4.673 0 0 0 -3.634-1.513 3.7 3.7 0 0 0 -2.737 1.616l-3.136 3.92-1.257-1.256a1 1 0 0 0 -1.414 0l-3 3a1 1 0 0 0 0 1.414l1.793 1.793-14.793 14.793a1.063 1.063 0 0 0 -.125.152l-2 3a1 1 0 0 0 .125 1.262l2 2a1 1 0 0 0 1.262.125l3-2a.953.953 0 0 0 .152-.125l14.793-14.793zm2.384-13.849c.011-.014.022-.029.032-.044a1.749 1.749 0 0 1 1.291-.808 2.75 2.75 0 0 1 2.061.941 2.74 2.74 0 0 1 .933 2.053 1.791 1.791 0 0 1 -.852 1.32l-4.114 3.292-2.642-2.64zm-6.677 3.556 6.586 6.586-1.586 1.586-6.586-6.586zm-13.637 21.809-2.236 1.49-.84-.84 1.49-2.236 14.723-14.723 1.586 1.586z" fill="#000000" data-original="#000000" style="" class=""/><path d="m15.256 35.332c-.544.606-3.256 3.727-3.256 5.668a4 4 0 0 0 8 0c0-1.941-2.712-5.062-3.256-5.668a1.033 1.033 0 0 0 -1.488 0zm.744 7.668a2 2 0 0 1 -2-2c0-.638.939-2.126 2-3.451 1.062 1.332 2 2.832 2 3.451a2 2 0 0 1 -2 2z" fill="#000000" data-original="#000000" style="" class=""/><path d="m47 29.1v-7.1a1 1 0 0 0 -1-1h-10a1 1 0 0 0 -1 1v7.1a5.009 5.009 0 0 0 -4 4.9v25a3 3 0 0 0 3 3h14a3 3 0 0 0 3-3v-25a5.009 5.009 0 0 0 -4-4.9zm-10-2.1h8v2h-8zm0-4h8v2h-8zm-1 8h10a3 3 0 0 1 3 3h-16a3 3 0 0 1 3-3zm-3 5h16v16h-16zm15 24h-14a1 1 0 0 1 -1-1v-5h16v5a1 1 0 0 1 -1 1z" fill="#000000" data-original="#000000" style="" class=""/><path d="m41 56h2v2h-2z" fill="#000000" data-original="#000000" style="" class=""/><path d="m45 56h2v2h-2z" fill="#000000" data-original="#000000" style="" class=""/><path d="m35 38h8v2h-8z" fill="#000000" data-original="#000000" style="" class=""/><path d="m35 42h4v2h-4z" fill="#000000" data-original="#000000" style="" class=""/><path d="m35 48h10v2h-10z" fill="#000000" data-original="#000000" style="" class=""/></g></g></svg>
