<svg width="485" height="180" viewBox="0 0 485 180" fill="none" xmlns="http://www.w3.org/2000/svg">
<path d="M445.849 7.02411L439.379 15.0963L445.849 21.566L453.928 15.0963C456.844 13.0127 456.462 9.56222 453.928 7.02742L453.918 7.01747C451.376 4.48931 447.926 4.10776 445.849 7.02411Z" fill="#394D5C"/>
<path d="M431.078 16.5944L436.054 11.618L449.324 24.8875L444.348 29.8639L431.078 16.5944Z" fill="#A88EC2"/>
<path d="M435.232 20.7362L409.519 46.4491L406.201 51.4258L409.519 54.7436L414.496 51.4258L440.209 25.7129L435.232 20.7362Z" fill="#FFC7C7"/>
<path d="M409.519 68.0149C409.519 69.3348 408.995 70.6006 408.061 71.5339C407.128 72.4673 405.862 72.9916 404.542 72.9916C403.222 72.9916 401.957 72.4673 401.023 71.5339C400.09 70.6006 399.566 69.3348 399.566 68.0149C399.566 65.2661 404.542 59.7204 404.542 59.7204C404.542 59.7204 409.519 65.2661 409.519 68.0149Z" fill="#FFE2E2"/>
<path d="M437.72 49.7672H454.309C456.069 49.7672 457.757 50.4663 459.001 51.7107C460.246 52.9551 460.945 54.6429 460.945 56.4028V97.8753C460.945 98.7552 460.595 99.5991 459.973 100.221C459.351 100.844 458.507 101.193 457.627 101.193H434.403C433.523 101.193 432.679 100.844 432.056 100.221C431.434 99.5991 431.085 98.7552 431.085 97.8753V56.4028C431.085 54.6429 431.784 52.9551 433.028 51.7107C434.273 50.4663 435.96 49.7672 437.72 49.7672Z" fill="#FFE2E2"/>
<path d="M437.72 43.1313H454.309V49.7669H437.72V43.1313Z" fill="#CAB8DC"/>
<path d="M437.72 36.4957H454.309V43.1313H437.72V36.4957Z" fill="#A88EC2"/>
<path d="M431.085 58.0615H460.945V87.9216H431.085V58.0615Z" fill="#FFC7C7"/>
<path d="M446.015 92.8986H449.333V96.2164H446.015V92.8986Z" fill="#F4F4E6"/>
<path d="M452.65 92.8986H455.968V96.2164H452.65V92.8986Z" fill="#F4F4E6"/>
<path d="M436.062 63.0381H449.333V66.3559H436.062V63.0381Z" fill="#CAB8DC"/>
<path d="M436.062 69.6738H442.697V72.9916H436.062V69.6738Z" fill="#CAB8DC"/>
<path d="M436.062 79.6271H452.651V82.9449H436.062V79.6271Z" fill="#CAB8DC"/>
<path d="M443.183 31.0332C443.494 31.3442 443.916 31.5189 444.356 31.5189C444.796 31.5189 445.218 31.3442 445.529 31.0332L450.505 26.0565C450.816 25.7454 450.991 25.3235 450.991 24.8836C450.991 24.4438 450.816 24.0219 450.505 23.7108L448.422 21.6272L454.891 16.4515C455.658 15.9433 456.3 15.2696 456.771 14.48C457.242 13.6904 457.529 12.8051 457.612 11.8895C457.653 10.7603 457.449 9.63576 457.013 8.59309C456.578 7.55043 455.922 6.61441 455.091 5.84944C454.329 5.01772 453.395 4.36225 452.354 3.92875C451.312 3.49525 450.189 3.29416 449.062 3.33953C448.154 3.42095 447.275 3.7038 446.489 4.16753C445.704 4.63125 445.032 5.26419 444.522 6.0203L439.319 12.5232L437.234 10.4396C436.923 10.1286 436.501 9.95391 436.061 9.95391C435.621 9.95391 435.2 10.1286 434.888 10.4396L429.912 15.4163C429.601 15.7274 429.426 16.1493 429.426 16.5891C429.426 17.029 429.601 17.4509 429.912 17.762L432.886 20.7364L408.346 45.2765C408.269 45.3539 408.2 45.4383 408.139 45.5286L404.821 50.5053C404.608 50.8244 404.513 51.2075 404.55 51.5892C404.588 51.9709 404.757 52.3277 405.028 52.5989L408.346 55.9166C408.617 56.1879 408.974 56.3568 409.356 56.3946C409.737 56.4324 410.121 56.3368 410.44 56.124L415.416 52.8062C415.507 52.746 415.592 52.6765 415.668 52.5989L440.209 28.0588L443.183 31.0332ZM447.138 8.05909C447.156 8.03587 447.174 8.01098 447.191 7.9861C447.424 7.61566 447.737 7.30267 448.108 7.07055C448.479 6.83843 448.898 6.6932 449.333 6.64571C449.981 6.64813 450.621 6.78859 451.21 7.05776C451.8 7.32693 452.325 7.71861 452.751 8.20673C453.236 8.6321 453.625 9.15578 453.892 9.74298C454.159 10.3302 454.298 10.9675 454.299 11.6125C454.246 12.0609 454.09 12.4911 453.845 12.8706C453.601 13.25 453.272 13.5686 452.886 13.8022L446.061 19.2633L441.678 14.8838L447.138 8.05909ZM436.061 13.9581L446.987 24.8836L444.356 27.5147L433.43 16.5891L436.061 13.9581ZM413.439 50.137L409.73 52.6088L408.336 51.2153L410.808 47.506L435.232 23.0821L437.863 25.7131L413.439 50.137Z" fill="black"/>
<path d="M403.308 58.6122C402.406 59.6175 397.907 64.795 397.907 68.0149C397.907 69.7747 398.606 71.4625 399.85 72.7069C401.095 73.9514 402.782 74.6505 404.542 74.6505C406.302 74.6505 407.99 73.9514 409.234 72.7069C410.479 71.4625 411.178 69.7747 411.178 68.0149C411.178 64.795 406.679 59.6175 405.777 58.6122C405.617 58.4463 405.425 58.3142 405.213 58.2241C405.001 58.1339 404.773 58.0874 404.542 58.0874C404.312 58.0874 404.084 58.1339 403.872 58.2241C403.66 58.3142 403.468 58.4463 403.308 58.6122ZM404.542 71.3327C403.662 71.3327 402.819 70.9831 402.196 70.3609C401.574 69.7387 401.225 68.8948 401.225 68.0149C401.225 66.9565 402.782 64.4881 404.542 62.29C406.304 64.4997 407.86 66.988 407.86 68.0149C407.86 68.8948 407.511 69.7387 406.888 70.3609C406.266 70.9831 405.422 71.3327 404.542 71.3327Z" fill="black"/>
<path d="M455.968 48.274V36.4958C455.968 36.0558 455.793 35.6339 455.482 35.3228C455.171 35.0117 454.749 34.8369 454.309 34.8369H437.72C437.28 34.8369 436.858 35.0117 436.547 35.3228C436.236 35.6339 436.061 36.0558 436.061 36.4958V48.274C434.189 48.659 432.507 49.6777 431.298 51.1584C430.089 52.6391 429.428 54.4912 429.426 56.4026V97.8751C429.426 99.195 429.95 100.461 430.883 101.394C431.817 102.327 433.083 102.852 434.402 102.852H457.627C458.947 102.852 460.213 102.327 461.146 101.394C462.079 100.461 462.604 99.195 462.604 97.8751V56.4026C462.601 54.4912 461.94 52.6391 460.731 51.1584C459.523 49.6777 457.84 48.659 455.968 48.274ZM439.379 44.7903H452.65V48.1081H439.379V44.7903ZM439.379 38.1547H452.65V41.4725H439.379V38.1547ZM437.72 51.4259H454.309C455.629 51.4259 456.895 51.9502 457.828 52.8835C458.762 53.8168 459.286 55.0827 459.286 56.4026H432.744C432.744 55.0827 433.268 53.8168 434.201 52.8835C435.135 51.9502 436.4 51.4259 437.72 51.4259ZM432.744 59.7204H459.286V86.2628H432.744V59.7204ZM457.627 99.534H434.402C433.963 99.534 433.541 99.3592 433.229 99.0481C432.918 98.737 432.744 98.315 432.744 97.8751V89.5806H459.286V97.8751C459.286 98.315 459.111 98.737 458.8 99.0481C458.489 99.3592 458.067 99.534 457.627 99.534Z" fill="black"/>
<path d="M446.015 92.8986H449.333V96.2164H446.015V92.8986Z" fill="black"/>
<path d="M452.65 92.8986H455.968V96.2164H452.65V92.8986Z" fill="black"/>
<path d="M436.062 63.0381H449.333V66.3559H436.062V63.0381Z" fill="black"/>
<path d="M436.062 69.6738H442.697V72.9916H436.062V69.6738Z" fill="black"/>
<path d="M436.062 79.6271H452.651V82.9449H436.062V79.6271Z" fill="black"/>
<path d="M28.024 81.0594C28.3253 81.436 28.476 81.9257 28.476 82.5284C28.5513 83.0557 28.476 83.5077 28.25 83.8844C27.8733 84.713 27.233 85.0144 26.329 84.7884C24.747 84.4117 23.0897 84.261 21.357 84.3364C19.6243 84.4117 17.8917 85.0897 16.159 86.3704C14.4263 87.651 13.0703 89.5344 12.091 92.0204C11.1117 94.431 10.622 96.9547 10.622 99.5914C10.622 102.153 11.2247 104.375 12.43 106.258C13.7107 108.066 15.3303 109.385 17.289 110.213C18.4943 110.741 19.8503 111.042 21.357 111.117C22.8637 111.193 24.3703 111.155 25.877 111.004C27.459 110.778 29.0033 110.477 30.51 110.1C32.0167 109.648 33.448 109.159 34.804 108.631C35.256 108.481 35.6703 108.518 36.047 108.744C36.499 108.97 36.8003 109.272 36.951 109.648C37.3277 110.628 37.1393 111.607 36.386 112.586C35.482 113.566 34.2767 114.432 32.77 115.185C31.2633 115.939 29.606 116.541 27.798 116.993C25.99 117.445 24.1443 117.709 22.261 117.784C20.3777 117.784 18.6073 117.558 16.95 117.106C14.6147 116.504 12.6183 115.637 10.961 114.507C9.379 113.302 8.06067 111.946 7.006 110.439C5.95133 108.857 5.16033 107.2 4.633 105.467C4.10567 103.659 3.80433 101.814 3.729 99.9304C3.57833 95.4104 4.44467 91.3424 6.328 87.7264C8.28667 84.1104 10.9987 81.436 14.464 79.7034C17.0253 78.4227 19.5867 77.933 22.148 78.2344C24.7847 78.4604 26.7433 79.402 28.024 81.0594ZM69.4668 82.9804C71.7268 83.809 73.6101 85.052 75.1168 86.7094C76.6988 88.3667 77.9041 90.25 78.7328 92.3594C79.5614 94.3934 80.0134 96.5027 80.0888 98.6874C80.2394 100.872 80.0134 102.906 79.4108 104.789C78.5821 106.899 77.5274 108.97 76.2468 111.004C74.9661 113.038 73.4971 114.846 71.8398 116.428C70.1824 118.01 68.2991 119.291 66.1898 120.27C64.0804 121.25 61.7451 121.739 59.1838 121.739C56.0951 121.739 53.4961 121.024 51.3868 119.592C49.2774 118.161 47.6201 116.315 46.4148 114.055C45.2094 111.795 44.4184 109.234 44.0418 106.371C43.7404 103.509 43.8158 100.646 44.2678 97.7834C44.5691 95.674 45.0588 93.64 45.7368 91.6814C46.4901 89.6474 47.4318 87.877 48.5618 86.3704C49.6918 84.7884 50.9724 83.5077 52.4038 82.5284C53.9104 81.549 55.6054 81.0594 57.4888 81.0594C58.5434 81.0594 59.8618 81.2854 61.4438 81.7374C63.0258 82.114 64.4948 82.679 65.8508 83.4324C66.8301 82.5284 68.0354 82.3777 69.4668 82.9804ZM65.1728 91.2294C64.3441 90.702 63.3648 90.024 62.2348 89.1954C61.1801 88.2914 60.2384 87.8394 59.4098 87.8394C58.5058 87.8394 57.6018 88.2537 56.6978 89.0824C55.8691 89.911 55.1158 90.8904 54.4378 92.0204C53.8351 93.075 53.3078 94.1674 52.8558 95.2974C52.4038 96.4274 52.1024 97.3314 51.9518 98.0094C51.7258 99.1394 51.5751 100.495 51.4998 102.077C51.4244 103.659 51.5374 105.241 51.8388 106.823C52.1401 108.33 52.7051 109.724 53.5338 111.004C54.4378 112.21 55.7561 113.076 57.4888 113.603C58.5434 113.905 59.7864 113.905 61.2178 113.603C62.6491 113.227 64.0428 112.586 65.3988 111.682C66.8301 110.778 68.1484 109.573 69.3538 108.066C70.6344 106.56 71.6138 104.827 72.2918 102.868C73.0451 100.684 73.0451 98.4237 72.2918 96.0884C71.6138 93.6777 70.1824 91.945 67.9978 90.8904C67.4704 91.267 66.9431 91.4554 66.4158 91.4554C65.8884 91.4554 65.4741 91.38 65.1728 91.2294ZM110.293 88.6304C110.143 87.8017 109.992 87.0107 109.841 86.2574C109.691 85.504 109.314 85.0144 108.711 84.7884C107.431 84.4117 106.075 84.374 104.643 84.6754C103.212 84.9767 101.894 85.4664 100.688 86.1444C99.483 86.747 98.466 87.4627 97.6373 88.2914C96.8086 89.0447 96.3566 89.7227 96.2813 90.3254C96.0553 91.4554 96.3566 92.5477 97.1853 93.6024C98.014 94.657 99.2193 95.7117 100.801 96.7664C103.438 98.3484 106.188 99.968 109.05 101.625C111.913 103.283 114.324 104.978 116.282 106.71C118.241 108.443 119.559 110.364 120.237 112.473C120.991 114.507 120.84 116.843 119.785 119.479C118.957 121.513 117.412 123.171 115.152 124.451C112.892 125.732 110.406 126.749 107.694 127.502C104.982 128.18 102.27 128.67 99.5583 128.971C96.8463 129.197 94.5486 129.31 92.6653 129.31C92.2133 129.31 91.6483 129.16 90.9703 128.858C90.3676 128.482 89.765 128.067 89.1623 127.615C88.635 127.163 88.1453 126.711 87.6933 126.259C87.3166 125.732 87.1283 125.28 87.1283 124.903C87.1283 123.547 87.731 122.606 88.9363 122.078C90.1416 121.551 91.3846 121.287 92.6653 121.287C94.4733 121.287 96.3943 121.212 98.4283 121.061C100.538 120.835 102.534 120.534 104.417 120.157C106.301 119.705 107.996 119.14 109.502 118.462C111.009 117.784 112.064 116.918 112.666 115.863C113.194 114.959 112.855 113.905 111.649 112.699C110.519 111.419 108.975 110.1 107.016 108.744C105.133 107.388 103.061 106.07 100.801 104.789C98.6166 103.509 96.7333 102.341 95.1513 101.286C93.5693 100.232 92.2133 98.9887 91.0833 97.5574C89.9533 96.0507 89.2376 94.205 88.9363 92.0204C88.861 90.0617 89.2753 88.1784 90.1793 86.3704C91.0833 84.5624 92.251 82.9804 93.6823 81.6244C95.189 80.193 96.884 79.063 98.7673 78.2344C100.651 77.4057 102.534 76.9914 104.417 76.9914C107.657 77.142 110.331 78.046 112.44 79.7034C114.55 81.2854 115.793 83.6584 116.169 86.8224C116.169 87.877 115.981 88.7434 115.604 89.4214C115.303 90.0994 114.738 90.5137 113.909 90.6644C112.855 90.815 111.988 90.702 111.31 90.3254C110.708 89.8734 110.369 89.3084 110.293 88.6304ZM127.906 77.7824C126.776 78.2344 125.797 78.272 124.968 77.8954C124.14 77.5187 123.537 77.029 123.16 76.4264C122.633 75.673 122.482 74.882 122.708 74.0534C122.934 73.2247 123.575 72.509 124.629 71.9064C126.362 70.927 128.547 70.136 131.183 69.5334C133.82 68.8554 136.645 68.667 139.658 68.9684C142.672 69.2697 145.421 70.0984 147.907 71.4544C150.469 72.735 152.616 74.3924 154.348 76.4264C156.156 78.4604 157.512 80.7957 158.416 83.4324C159.396 85.9937 159.848 88.7057 159.772 91.5684C159.622 94.5817 159.019 97.595 157.964 100.608C156.985 103.622 155.591 106.447 153.783 109.083C152.051 111.72 149.941 114.131 147.455 116.315C145.045 118.425 142.37 120.082 139.432 121.287C137.398 121.815 135.854 121.89 134.799 121.513C133.745 121.137 133.029 120.685 132.652 120.157C132.502 119.781 132.426 119.291 132.426 118.688C132.502 118.01 132.916 117.332 133.669 116.654C132.765 109.347 132.2 102.303 131.974 95.5234C131.824 88.668 131.748 82.4154 131.748 76.7654C130.468 76.9914 129.187 77.3304 127.906 77.7824ZM140.223 76.3134C139.771 76.238 139.282 76.2004 138.754 76.2004C138.302 76.125 137.85 76.0874 137.398 76.0874C137.85 76.69 138.227 77.4434 138.528 78.3474C138.83 79.176 138.98 80.0047 138.98 80.8334C138.98 85.4287 139.018 90.363 139.093 95.6364C139.244 100.91 139.621 106.597 140.223 112.699C143.538 110.289 146.363 107.275 148.698 103.659C151.109 99.968 152.39 96.0884 152.54 92.0204C152.616 88.2537 151.674 84.939 149.715 82.0764C147.757 79.1384 144.593 77.2174 140.223 76.3134ZM195.741 95.8624C192.803 97.595 189.639 98.951 186.249 99.9304C182.859 100.834 179.205 101.286 175.288 101.286C175.438 103.923 176.192 106.032 177.548 107.614C178.904 109.121 180.599 110.025 182.633 110.326C183.838 110.477 185.043 110.439 186.249 110.213C187.529 109.987 188.697 109.648 189.752 109.196C190.882 108.669 191.899 108.104 192.803 107.501C193.707 106.899 194.498 106.296 195.176 105.693C195.854 105.091 196.569 104.714 197.323 104.563C198.076 104.337 198.641 104.3 199.018 104.45C200.072 104.827 200.449 105.957 200.148 107.84C198.942 110.251 197.21 112.323 194.95 114.055C192.69 115.713 190.166 116.767 187.379 117.219C184.968 117.671 182.482 117.558 179.921 116.88C177.359 116.202 175.062 114.884 173.028 112.925C171.295 111.193 169.977 109.159 169.073 106.823C168.169 104.488 167.604 102.077 167.378 99.5914C167.152 97.256 167.34 95.0337 167.943 92.9244C168.621 90.815 169.638 88.9694 170.994 87.3874C172.35 85.73 174.045 84.374 176.079 83.3194C178.113 82.2647 180.486 81.662 183.198 81.5114C186.437 81.2854 189.375 81.888 192.012 83.3194C194.648 84.7507 196.494 86.747 197.549 89.3084C198.151 90.7397 198.302 91.9827 198.001 93.0374C197.775 94.092 197.021 95.0337 195.741 95.8624ZM182.746 88.1784C181.992 88.329 181.164 88.5927 180.26 88.9694C179.431 89.346 178.64 89.8357 177.887 90.4384C177.209 90.9657 176.568 91.606 175.966 92.3594C175.438 93.0374 175.137 93.8284 175.062 94.7324C176.342 94.7324 177.736 94.6194 179.243 94.3934C180.825 94.1674 182.331 93.9037 183.763 93.6024C185.269 93.2257 186.625 92.8114 187.831 92.3594C189.111 91.9074 190.166 91.4177 190.995 90.8904C190.392 89.459 189.262 88.5927 187.605 88.2914C186.023 87.9147 184.403 87.877 182.746 88.1784ZM234.001 93.3764C233.474 93.6777 232.833 93.7907 232.08 93.7154C231.327 93.5647 230.686 93.075 230.159 92.2464C228.954 90.6644 227.485 89.8734 225.752 89.8734C224.17 89.8734 222.739 90.25 221.458 91.0034C220.253 91.6814 219.16 92.623 218.181 93.8284C217.277 94.9584 216.524 96.239 215.921 97.6704C215.318 99.1017 214.904 100.533 214.678 101.964C214.301 104.601 214.753 106.823 216.034 108.631C217.315 110.439 219.311 111.343 222.023 111.343C224.208 111.419 226.656 111.004 229.368 110.1C232.155 109.121 234.754 107.878 237.165 106.371C238.22 105.919 239.199 105.656 240.103 105.58C241.007 105.505 241.76 105.957 242.363 106.936C243.116 108.142 242.928 109.385 241.798 110.665C240.668 111.871 239.161 112.963 237.278 113.942C235.395 114.997 233.398 115.939 231.289 116.767C229.255 117.521 227.183 118.086 225.074 118.462C222.965 118.764 220.855 118.764 218.746 118.462C216.712 118.161 214.791 117.445 212.983 116.315C210.12 114.357 208.388 111.569 207.785 107.953C207.182 104.337 207.446 100.608 208.576 96.7664C209.028 95.335 209.668 93.9037 210.497 92.4724C211.326 90.9657 212.305 89.6097 213.435 88.4044C214.64 87.199 215.959 86.182 217.39 85.3534C218.821 84.4494 220.403 83.8467 222.136 83.5454C224.923 83.0934 227.598 83.3947 230.159 84.4494C232.72 85.4287 234.415 87.2744 235.244 89.9864C235.395 90.589 235.395 91.2294 235.244 91.9074C235.093 92.51 234.679 92.9997 234.001 93.3764ZM274.941 82.9804C277.201 83.809 279.085 85.052 280.591 86.7094C282.173 88.3667 283.379 90.25 284.207 92.3594C285.036 94.3934 285.488 96.5027 285.563 98.6874C285.714 100.872 285.488 102.906 284.885 104.789C284.057 106.899 283.002 108.97 281.721 111.004C280.441 113.038 278.972 114.846 277.314 116.428C275.657 118.01 273.774 119.291 271.664 120.27C269.555 121.25 267.22 121.739 264.658 121.739C261.57 121.739 258.971 121.024 256.861 119.592C254.752 118.161 253.095 116.315 251.889 114.055C250.684 111.795 249.893 109.234 249.516 106.371C249.215 103.509 249.29 100.646 249.742 97.7834C250.044 95.674 250.533 93.64 251.211 91.6814C251.965 89.6474 252.906 87.877 254.036 86.3704C255.166 84.7884 256.447 83.5077 257.878 82.5284C259.385 81.549 261.08 81.0594 262.963 81.0594C264.018 81.0594 265.336 81.2854 266.918 81.7374C268.5 82.114 269.969 82.679 271.325 83.4324C272.305 82.5284 273.51 82.3777 274.941 82.9804ZM270.647 91.2294C269.819 90.702 268.839 90.024 267.709 89.1954C266.655 88.2914 265.713 87.8394 264.884 87.8394C263.98 87.8394 263.076 88.2537 262.172 89.0824C261.344 89.911 260.59 90.8904 259.912 92.0204C259.31 93.075 258.782 94.1674 258.33 95.2974C257.878 96.4274 257.577 97.3314 257.426 98.0094C257.2 99.1394 257.05 100.495 256.974 102.077C256.899 103.659 257.012 105.241 257.313 106.823C257.615 108.33 258.18 109.724 259.008 111.004C259.912 112.21 261.231 113.076 262.963 113.603C264.018 113.905 265.261 113.905 266.692 113.603C268.124 113.227 269.517 112.586 270.873 111.682C272.305 110.778 273.623 109.573 274.828 108.066C276.109 106.56 277.088 104.827 277.766 102.868C278.52 100.684 278.52 98.4237 277.766 96.0884C277.088 93.6777 275.657 91.945 273.472 90.8904C272.945 91.267 272.418 91.4554 271.89 91.4554C271.363 91.4554 270.949 91.38 270.647 91.2294ZM313.734 65.1264C313.508 63.7704 313.583 62.5274 313.96 61.3974C314.412 60.2674 315.278 59.627 316.559 59.4764C317.689 59.3257 318.668 59.627 319.497 60.3804C320.401 61.1337 320.966 62.113 321.192 63.3184C322.699 71.9817 324.092 80.6074 325.373 89.1954C326.729 97.708 327.934 106.07 328.989 114.281C329.29 116.466 329.14 117.973 328.537 118.801C327.934 119.555 327.219 120.12 326.39 120.496C325.486 120.873 324.62 120.873 323.791 120.496C323.038 120.12 322.548 119.442 322.322 118.462L322.209 117.784L321.757 117.897C319.271 118.801 316.672 119.329 313.96 119.479C311.248 119.555 308.649 119.216 306.163 118.462C303.677 117.709 301.455 116.504 299.496 114.846C297.613 113.114 296.257 110.929 295.428 108.292C293.62 102.492 294.75 97.2184 298.818 92.4724C300.551 90.5137 302.698 88.7434 305.259 87.1614C307.82 85.5794 310.909 84.3364 314.525 83.4324L316.559 82.9804L313.734 65.1264ZM302.321 105.467C302.773 107.275 303.602 108.669 304.807 109.648C306.012 110.628 307.444 111.306 309.101 111.682C310.758 111.984 312.529 112.021 314.412 111.795C316.295 111.569 318.141 111.155 319.949 110.552L320.966 110.213L317.802 90.3254L315.542 90.8904C313.96 91.3424 312.265 92.058 310.457 93.0374C308.724 93.9414 307.18 95.0337 305.824 96.3144C304.468 97.595 303.413 99.0264 302.66 100.608C301.982 102.19 301.869 103.81 302.321 105.467ZM362.372 95.8624C359.434 97.595 356.27 98.951 352.88 99.9304C349.49 100.834 345.836 101.286 341.919 101.286C342.069 103.923 342.823 106.032 344.179 107.614C345.535 109.121 347.23 110.025 349.264 110.326C350.469 110.477 351.674 110.439 352.88 110.213C354.16 109.987 355.328 109.648 356.383 109.196C357.513 108.669 358.53 108.104 359.434 107.501C360.338 106.899 361.129 106.296 361.807 105.693C362.485 105.091 363.2 104.714 363.954 104.563C364.707 104.337 365.272 104.3 365.649 104.45C366.703 104.827 367.08 105.957 366.779 107.84C365.573 110.251 363.841 112.323 361.581 114.055C359.321 115.713 356.797 116.767 354.01 117.219C351.599 117.671 349.113 117.558 346.552 116.88C343.99 116.202 341.693 114.884 339.659 112.925C337.926 111.193 336.608 109.159 335.704 106.823C334.8 104.488 334.235 102.077 334.009 99.5914C333.783 97.256 333.971 95.0337 334.574 92.9244C335.252 90.815 336.269 88.9694 337.625 87.3874C338.981 85.73 340.676 84.374 342.71 83.3194C344.744 82.2647 347.117 81.662 349.829 81.5114C353.068 81.2854 356.006 81.888 358.643 83.3194C361.279 84.7507 363.125 86.747 364.18 89.3084C364.782 90.7397 364.933 91.9827 364.632 93.0374C364.406 94.092 363.652 95.0337 362.372 95.8624ZM349.377 88.1784C348.623 88.329 347.795 88.5927 346.891 88.9694C346.062 89.346 345.271 89.8357 344.518 90.4384C343.84 90.9657 343.199 91.606 342.597 92.3594C342.069 93.0374 341.768 93.8284 341.693 94.7324C342.973 94.7324 344.367 94.6194 345.874 94.3934C347.456 94.1674 348.962 93.9037 350.394 93.6024C351.9 93.2257 353.256 92.8114 354.462 92.3594C355.742 91.9074 356.797 91.4177 357.626 90.8904C357.023 89.459 355.893 88.5927 354.236 88.2914C352.654 87.9147 351.034 87.877 349.377 88.1784ZM408.429 83.4324C407.073 84.1857 405.641 84.9767 404.135 85.8054C402.703 86.634 401.234 87.6134 399.728 88.7434C398.296 89.798 396.903 91.0787 395.547 92.5854C394.266 94.0167 393.098 95.7494 392.044 97.7834C390.537 100.646 389.52 103.584 388.993 106.597C388.465 109.535 388.126 112.436 387.976 115.298C387.976 116.654 387.637 118.048 386.959 119.479C386.356 120.835 385.49 121.513 384.36 121.513C382.928 121.513 381.761 120.798 380.857 119.366C380.028 117.86 379.463 116.428 379.162 115.072C377.881 109.724 376.826 104.45 375.998 99.2524C375.169 93.979 374.453 88.7434 373.851 83.5454C373.851 82.4907 374.152 81.8127 374.755 81.5114C375.433 81.21 376.186 81.097 377.015 81.1724C377.919 81.2477 378.785 81.4737 379.614 81.8504C380.442 82.227 380.932 82.8297 381.083 83.6584C381.384 86.4457 381.761 89.3837 382.213 92.4724C382.665 95.4857 383.117 98.0847 383.569 100.269C383.87 97.708 384.699 95.222 386.055 92.8114C387.411 90.4007 389.068 88.216 391.027 86.2574C393.061 84.2987 395.321 82.6414 397.807 81.2854C400.368 79.9294 402.967 79.0254 405.604 78.5734C406.734 78.4227 407.675 78.4227 408.429 78.5734C409.182 78.724 409.709 78.9877 410.011 79.3644C410.312 79.741 410.35 80.3437 410.124 81.1724C409.973 82.001 409.408 82.7544 408.429 83.4324Z" fill="#E28F8F"/>
</svg>
